<?xml version="1.0"?>
<svg xmlns="http://www.w3.org/2000/svg" id="Layer_1" data-name="Layer 1" viewBox="0 0 128 128" width="512" height="512"><title>iStar_Design_Art_LineIcons_Outlined-80</title><path d="M122.81,71A35.32,35.32,0,0,0,124,62c0-12.22-5-21.85-13.74-26.65a7.17,7.17,0,0,0-11.67-8.25l-7.34,8.71a7.21,7.21,0,0,0-.45,8.66,5.51,5.51,0,0,0,2.54,2l.47.19a6.15,6.15,0,0,0,1.86.41,9,9,0,0,1-.73,18h-10a50.42,50.42,0,0,1-9.58-6.5,17.46,17.46,0,0,0-4.83-2.92L94.85,26.66a1,1,0,1,0-1.52-1.29L78.4,43.09l-3.31-2.83L79,35.64a1,1,0,0,0-1.53-1.29L73.57,39l-1.74-1.49,3.11-3.7a1,1,0,0,0-.11-1.4l-3-2.61a1,1,0,0,0-.73-.24,1,1,0,0,0-.68.35l-7.52,8.93a1,1,0,0,0,.12,1.4l3,2.61a1.06,1.06,0,0,0,.65.24h.09a1,1,0,0,0,.68-.36L70.54,39l1.74,1.49-12,14.19s0,0,0,.06a17.33,17.33,0,0,0-7.65,3.78A47.25,47.25,0,0,1,25.77,70.12V68.75a9.24,9.24,0,0,0-.6-3.28l-2.74-7.28a9.56,9.56,0,0,1,2.18-7.35,9.51,9.51,0,0,0,2.12-6,9.61,9.61,0,0,0-3.26-7.2A10.81,10.81,0,0,0,15.08,35,10.3,10.3,0,0,0,6,43.26,9.5,9.5,0,0,0,8.07,51a9.61,9.61,0,0,1,2,7.54L7.41,65.44a9.13,9.13,0,0,0-.63,3.34v1.61a6.14,6.14,0,0,0-4.86,6v5.16a1,1,0,0,0,1,1H125a1,1,0,0,0,1-1V76.39A6.15,6.15,0,0,0,122.81,71ZM66.55,40.64,65,39.34l6.23-7.4,1.53,1.31-:q!3.11,3.69h0ZM94.91,67a11,11,0,0,0,.89-22,4.36,4.36,0,0,1-1.28-.27l-.46-.19a3.5,3.5,0,0,1-1.63-1.27,5.2,5.2,0,0,1,.32-6.25l7.34-8.71A5.18,5.18,0,0,1,108,35a.53.53,0,0,0-.06.1s-.06.06-.08.1,0,.05,0,.08a1.05,1.05,0,0,0,0,.19,1.1,1.1,0,0,0,0,.18,1.08,1.08,0,0,0,0,.19.78.78,0,0,0,0,.18l.09.17a.93.93,0,0,0,.13.15s0,0,0,.06a.39.39,0,0,0,.11.06.34.34,0,0,0,.09.08C117,40.8,122,50.06,122,62a33.55,33.55,0,0,1-1.06,8.39,5.55,5.55,0,0,0-1-.09H105.45A43.58,43.58,0,0,1,89.21,67ZM73.81,41.79l3.3,2.82L68.43,54.92A17.47,17.47,0,0,0,64,54.34c-.26,0-.51,0-.77,0ZM22.5,70.26H8.78V68.78c0-.15,0-.29,0-.44h15c0,.14,0,.27,0,.41v1.48C23.35,70.24,22.93,70.26,22.5,70.26ZM12,59.13a.73.73,0,0,0,.06-.21A11.6,11.6,0,0,0,9.6,49.7a7.53,7.53,0,0,1-1.67-6.11A8.29,8.29,0,0,1,15.29,37a8.84,8.84,0,0,1,6.84,2.15,7.62,7.62,0,0,1,2.6,5.72A7.5,7.5,0,0,1,23,49.59a11.57,11.57,0,0,0-2.58,9,1.17,1.17,0,0,0,.06.2l2.78,7.39.06.16H9.21l.06-.18ZM124,80.55H3.92V76.39a4.13,4.13,0,0,1,4.13-4.13H22.5c11.13,0,22.3-4.34,31.46-12.21a15.39,15.39,0,0,1,20,0,53,53,0,0,0,10,6.81l.22.11a46.35,46.35,0,0,0,21.18,5.29h14.46A4.14,4.14,0,0,1,124,76.39Z"/><path d="M115.8,52.51a1,1,0,0,0,1,.73,1.09,1.09,0,0,0,.26,0,1,1,0,0,0,.71-1.23,21.12,21.12,0,0,0-4.2-8.18A1,1,0,0,0,112,45.1,19.14,19.14,0,0,1,115.8,52.51Z"/><path d="M108.25,41.85a12.74,12.74,0,0,1,1.14.78,1,1,0,0,0,.6.2,1,1,0,0,0,.8-.4,1,1,0,0,0-.2-1.4c-.41-.31-.83-.6-1.27-.88a1,1,0,0,0-1.07,1.7Z"/><path d="M33.48,63.15A1,1,0,0,0,34.3,65C56.83,54.89,59,39.53,58.31,31.27A16.91,16.91,0,0,0,40,15.86,13.74,13.74,0,0,0,27.51,30.7a11.2,11.2,0,0,0,12.1,10.19A9.15,9.15,0,0,0,47.94,31a7.52,7.52,0,0,0-8.13-6.84,6.21,6.21,0,0,0-5.66,6.71,5.19,5.19,0,0,0,5.59,4.71,1,1,0,1,0-.17-2,3.17,3.17,0,0,1-3.43-2.89A4.23,4.23,0,0,1,40,26.15a5.53,5.53,0,0,1,6,5,7.16,7.16,0,0,1-6.51,7.73,9.19,9.19,0,0,1-9.93-8.37A11.72,11.72,0,0,1,40.19,17.85,14.94,14.94,0,0,1,56.32,31.44C57,39.17,54.89,53.57,33.48,63.15Z"/><path d="M62.75,9.13a1,1,0,1,0-.21-2,3.64,3.64,0,0,0-2.48,1.35,3.68,3.68,0,0,0-.81,2.71,4.36,4.36,0,0,0,4.8,3.89,5.22,5.22,0,0,0,4.64-5.72,6.26,6.26,0,0,0-6.88-5.58,7.59,7.59,0,0,0-6.75,8.32A12.55,12.55,0,0,0,59,20a1,1,0,0,0,.69.27,1,1,0,0,0,.72-.31,1,1,0,0,0,0-1.41,10.61,10.61,0,0,1-3.3-6.65,5.58,5.58,0,0,1,5-6.12A4.26,4.26,0,0,1,66.7,9.57a3.21,3.21,0,0,1-2.86,3.53A2.39,2.39,0,0,1,61.24,11a1.68,1.68,0,0,1,.37-1.24A1.71,1.71,0,0,1,62.75,9.13Z"/><path d="M15.08,41.68a1,1,0,0,0,0-2A5.09,5.09,0,0,0,10,44.76a1,1,0,0,0,2,0A3.08,3.08,0,0,1,15.08,41.68Z"/><path d="M125,85.66H2.92a1,1,0,0,0-1,1v36.59a1,1,0,0,0,1,1H125a1,1,0,0,0,1-1V86.66A1,1,0,0,0,125,85.66ZM3.92,122.25v-7.79H19.23a1,1,0,1,0,0-2H3.92V87.66H71v1.23a6.73,6.73,0,0,0,6.72,6.72H92.63a1,1,0,0,0,0-2H77.7A4.73,4.73,0,0,1,73,88.89V87.66H124v16.48h-8.73a1,1,0,0,0,0,2H124v4.48H105.58a1,1,0,1,0,0,2H124v9.63Z"/><path d="M40.24,98.23H47a4.35,4.35,0,0,1,4.35,4.35,1,1,0,0,0,2,0A6.36,6.36,0,0,0,47,96.23H40.24a1,1,0,1,0,0,2Z"/><path d="M33.23,96.23H19.13a1,1,0,1,0,0,2h14.1a1,1,0,1,0,0-2Z"/><path d="M14.77,106.73H8.63a1,1,0,0,0,0,2h6.14a1,1,0,0,0,0-2Z"/><path d="M86.13,106.29a1,1,0,0,0-1,1A5.18,5.18,0,0,1,80,112.46H39a1,1,0,1,0,0,2H80a7.18,7.18,0,0,0,7.17-7.17A1,1,0,0,0,86.13,106.29Z"/></svg>
